<svg width="58" height="13" viewBox="0 0 58 13" fill="none" xmlns="http://www.w3.org/2000/svg">
<path fill-rule="evenodd" clip-rule="evenodd" d="M0.867943 9.78796L0.870057 9.78098C0.943487 9.53866 1.00145 9.18104 1.0289 8.68687C1.05681 8.18448 1.07139 7.41601 1.07139 6.37249C1.07139 5.36022 1.05199 4.60064 1.01509 4.0841L1.01461 4.07731L1.01425 4.07052C0.986242 3.53834 0.9318 3.17684 0.867643 2.95585L0.865944 2.95C0.774427 2.62461 0.708008 2.30879 0.708008 2.041C0.708008 1.66265 0.812393 1.24924 1.14374 0.941565C1.46492 0.643323 1.87822 0.558412 2.24874 0.558412H6.71104C7.82269 0.558412 8.7965 0.82382 9.55998 1.42721C9.74311 1.57194 9.90415 1.73038 10.0436 1.90131C10.0771 1.57068 10.2112 1.26252 10.4578 1.01213C10.7593 0.695515 11.1528 0.558412 11.5614 0.558412H14.4975C14.8697 0.558412 15.2612 0.658731 15.5666 0.948722C15.8863 0.654972 16.2936 0.558412 16.6777 0.558412H18.3202C18.7041 0.558412 19.1112 0.654567 19.4325 0.949368C19.45 0.964987 19.4671 0.980892 19.4836 0.997068C19.5015 0.978218 19.5203 0.959708 19.5398 0.941565C19.861 0.643323 20.2743 0.558412 20.6448 0.558412H24.831C26.0416 0.558412 27.0977 0.834599 27.9342 1.45418C28.5378 1.88935 28.9257 2.46967 29.1186 3.15605C29.5899 2.30915 30.2422 1.63283 31.0702 1.14025L31.0736 1.1382C31.9756 0.608317 33.0075 0.354919 34.1453 0.354919C34.5293 0.354919 34.8832 0.384797 35.1863 0.461917C35.439 0.518323 35.6872 0.612349 35.9301 0.736035C36.2221 0.495506 36.5767 0.354919 36.9797 0.354919C37.3974 0.354919 37.8062 0.472915 38.1384 0.764642C38.2377 0.8493 38.322 0.942454 38.3921 1.04232C38.4221 1.00767 38.4545 0.974027 38.4895 0.941565C38.8107 0.643323 39.224 0.558412 39.5945 0.558412H44.5655C45.0919 0.558412 45.6368 0.648191 46.0436 0.972879C46.1851 1.07988 46.2997 1.20313 46.3899 1.33816C46.4573 1.19556 46.5515 1.06065 46.6797 0.941565C47.0009 0.643323 47.4142 0.558412 47.7847 0.558412H51.9709C53.1815 0.558412 54.2375 0.83458 55.074 1.45412C55.9844 2.11041 56.4041 3.09688 56.4041 4.27942C56.4041 4.95336 56.2696 5.57474 55.943 6.09195L55.9383 6.09939C55.7957 6.31927 55.6309 6.5155 55.4445 6.68617C55.6502 6.87997 55.8263 7.10397 55.9704 7.35727C56.237 7.80044 56.4556 8.35937 56.6386 9.01008L56.6399 9.01483L56.6412 9.01959C56.6704 9.12893 56.7267 9.30122 56.8171 9.54631C56.8835 9.69989 56.9421 9.8582 56.9768 10.0103C57.0281 10.1841 57.0437 10.3636 57.0437 10.5295C57.0437 10.9845 56.905 11.4482 56.5161 11.7801C56.1493 12.0931 55.6765 12.1866 55.2268 12.1866H53.061C52.6174 12.1866 52.1557 12.0916 51.7928 11.7896C51.7877 11.7943 51.7825 11.799 51.7773 11.8036C51.4416 12.1014 51.0115 12.1866 50.6191 12.1866H47.7847C47.4142 12.1866 47.0009 12.1016 46.6797 11.8034C46.6303 11.7575 46.586 11.7093 46.5462 11.6591C46.5272 11.6756 46.5076 11.6917 46.4876 11.7075C46.0466 12.0643 45.4749 12.1866 44.8853 12.1866H39.5945C39.224 12.1866 38.8107 12.1016 38.4895 11.8034C38.2934 11.6213 38.1768 11.4021 38.1142 11.175C37.7489 11.4826 37.2941 11.7301 36.7811 11.9324C35.9982 12.2412 35.1456 12.3901 34.2325 12.3901C33.122 12.3901 32.1059 12.1597 31.2027 11.6802C30.7082 11.4177 30.2726 11.0895 29.8972 10.6981C29.8657 11.0969 29.7171 11.4892 29.3762 11.7801C29.0094 12.0931 28.5366 12.1866 28.0868 12.1866H25.9211C25.4774 12.1866 25.0158 12.0916 24.6529 11.7896C24.6478 11.7943 24.6426 11.799 24.6374 11.8036C24.3017 12.1014 23.8716 12.1866 23.4792 12.1866H20.6448C20.2743 12.1866 19.861 12.1016 19.5398 11.8034C19.2298 11.5155 19.1185 11.1351 19.1054 10.7774C18.7004 11.2686 18.1897 11.6499 17.5843 11.92L17.5795 11.9222C16.8519 12.2405 16.0375 12.3901 15.1516 12.3901C14.2613 12.3901 13.4239 12.2023 12.65 11.821C11.8612 11.4323 11.2266 10.8613 10.7577 10.1178C10.7466 10.1002 10.7356 10.0825 10.7247 10.0647C10.5262 10.5059 10.2329 10.8976 9.84042 11.2297L9.83964 11.2304C9.03804 11.9067 7.93152 12.1866 6.63836 12.1866H2.24874C1.87822 12.1866 1.46492 12.1016 1.14374 11.8034C0.812393 11.4957 0.708008 11.0823 0.708008 10.704C0.708008 10.4362 0.774451 10.1204 0.865968 9.79498L0.867943 9.78796ZM10.2723 9.0512C10.3013 8.86996 10.3158 8.67959 10.3158 8.48009C10.3158 8.11391 10.2407 7.77475 10.0905 7.46263C10.0776 7.43566 10.064 7.4089 10.05 7.38234C10.02 7.32583 9.98744 7.27022 9.95239 7.21553C9.78293 6.94439 9.55894 6.7183 9.28042 6.53726C9.27911 6.5364 9.27779 6.53555 9.27647 6.53469C9.24184 6.51228 9.20637 6.49055 9.17006 6.46952C9.15732 6.46214 9.14447 6.45485 9.13153 6.44764C9.05506 6.40508 8.97499 6.36549 8.89132 6.32888C8.79442 6.29012 8.74597 6.22229 8.74597 6.12539C8.74597 6.04787 8.77988 5.98973 8.84771 5.95097C8.94284 5.89183 9.03251 5.82997 9.11672 5.76538C9.12748 5.75713 9.13816 5.74883 9.14874 5.74048C9.17273 5.72157 9.19627 5.70243 9.21935 5.68305C9.2203 5.68225 9.22125 5.68145 9.2222 5.68065C9.40825 5.52406 9.56444 5.35253 9.69075 5.16607C9.90394 4.86567 10.0105 4.47807 10.0105 4.00325C10.0105 3.14083 9.71013 2.47221 9.10935 1.9974C8.50856 1.52258 7.70912 1.28517 6.71104 1.28517H2.24874C1.70609 1.28517 1.43477 1.53711 1.43477 2.041C1.43477 2.20573 1.47837 2.44314 1.56558 2.75322C1.65279 3.05362 1.71094 3.47998 1.74001 4.03232C1.77877 4.57497 1.79815 5.35502 1.79815 6.37249C1.79815 7.41902 1.78361 8.20392 1.75454 8.72719C1.72547 9.25045 1.66248 9.67197 1.56558 9.99175C1.47837 10.3018 1.43477 10.5392 1.43477 10.704C1.43477 11.2079 1.70609 11.4598 2.24874 11.4598H6.63836C7.83994 11.4598 8.75081 11.1982 9.37098 10.6749C9.86576 10.2562 10.1662 9.71501 10.2723 9.0512ZM10.1297 5.7923C10.0508 5.88898 9.96611 5.98113 9.87582 6.06887C9.952 6.1274 10.0251 6.18928 10.0948 6.25455C10.1048 6.10539 10.1164 5.9513 10.1297 5.7923ZM10.7788 7.21925C10.7772 7.30288 10.7765 7.384 10.7765 7.46263C10.7765 7.8228 10.8096 8.16195 10.8759 8.48009C10.9122 8.65436 10.9584 8.82233 11.0146 8.98399C11.107 9.24974 11.2263 9.49845 11.3724 9.73011C11.7697 10.36 12.3027 10.8396 12.9713 11.1691C13.6399 11.4986 14.3667 11.6633 15.1516 11.6633C15.9558 11.6633 16.6681 11.5276 17.2882 11.2563C17.9181 10.9753 18.4123 10.5586 18.7708 10.0063C19.1293 9.45395 19.3086 8.77564 19.3086 7.97136C19.3086 7.31243 19.2844 6.68257 19.2359 6.08178C19.1875 5.4713 19.1148 4.77846 19.0179 4.00325C18.9985 3.87728 18.9888 3.7077 18.9888 3.49452C18.9888 3.28134 19.0228 3.00517 19.0906 2.66601C19.1099 2.57577 19.126 2.49303 19.139 2.4178C19.1648 2.26683 19.1778 2.14608 19.1778 2.05554C19.1778 2.05067 19.1778 2.04583 19.1777 2.041C19.1763 1.93276 19.1591 1.83535 19.1262 1.74876C19.0876 1.64715 19.0273 1.56044 18.9452 1.48866C18.7999 1.353 18.5915 1.28517 18.3202 1.28517H16.6777C16.3967 1.28517 16.1836 1.35785 16.0382 1.5032C16.0105 1.52909 15.9854 1.55656 15.9629 1.58563C15.8678 1.70887 15.8202 1.86066 15.8202 2.041C15.8202 2.06432 15.8209 2.08854 15.8223 2.11368C15.8324 2.29559 15.8793 2.52525 15.9629 2.80264C15.9638 2.80554 15.9646 2.80845 15.9655 2.81137C16.0915 3.31525 16.1739 3.75131 16.2126 4.11953C16.3192 5.20483 16.3725 6.14477 16.3725 6.93936C16.3725 7.30758 16.3047 7.5886 16.169 7.7824C16.043 7.96651 15.8638 8.05857 15.6312 8.05857C15.1079 8.05857 14.8463 7.66127 14.8463 6.86668C14.8463 6.34342 14.9093 5.41316 15.0353 4.07593C15.0643 3.73677 15.1225 3.33948 15.2097 2.88404C15.2125 2.8693 15.2152 2.85474 15.2179 2.84035C15.2803 2.50457 15.3114 2.26235 15.3114 2.11368C15.3114 2.08893 15.3108 2.06471 15.3095 2.041C15.2993 1.85609 15.2496 1.70283 15.1604 1.58121C15.1401 1.55358 15.1178 1.52757 15.0934 1.5032C14.9578 1.35785 14.7591 1.28517 14.4975 1.28517H11.5614C11.3191 1.28517 11.1253 1.36269 10.98 1.51773C10.8346 1.66309 10.7619 1.8472 10.7619 2.07007C10.7619 2.30263 10.8104 2.54004 10.9073 2.7823C11.0139 3.04393 11.0672 3.34432 11.0672 3.68348C11.0672 3.78038 11.0575 3.92573 11.0381 4.11953C10.8801 5.38326 10.7937 6.4165 10.7788 7.21925ZM15.6165 5.85785C15.5873 6.29476 15.5731 6.63002 15.5731 6.86668C15.5731 7.02772 15.5865 7.14717 15.6052 7.23231C15.6078 7.24397 15.6104 7.25471 15.613 7.26458C15.63 7.19784 15.6457 7.09413 15.6457 6.93936C15.6457 6.60747 15.6361 6.24706 15.6165 5.85785ZM19.8762 2.40746C19.8973 2.51042 19.9258 2.62567 19.9617 2.75322C20.0489 3.05362 20.107 3.47998 20.1361 4.03232C20.1749 4.57497 20.1942 5.35502 20.1942 6.37249C20.1942 7.41902 20.1797 8.20392 20.1506 8.72719C20.1216 9.25045 20.0586 9.67197 19.9617 9.99175C19.8745 10.3018 19.8309 10.5392 19.8309 10.704C19.8309 11.2079 20.1022 11.4598 20.6448 11.4598H23.4792C23.8271 11.4598 24.0742 11.3705 24.2207 11.1918C24.3271 11.0618 24.3804 10.8847 24.3804 10.6604C24.3804 10.5963 24.3728 10.5285 24.3578 10.4569C24.3387 10.366 24.3074 10.2691 24.2641 10.1662C24.2105 10.0208 24.1691 9.91168 24.1397 9.8388C24.1343 9.82539 24.1293 9.81321 24.1247 9.80225C24.1226 9.79734 24.1206 9.79267 24.1187 9.78825C24.1142 9.77627 24.1097 9.76421 24.1052 9.75206C24.0339 9.55786 23.9754 9.34221 23.9298 9.1051C23.8813 8.84347 23.8571 8.60121 23.8571 8.37834C23.8571 8.19423 23.8959 8.04888 23.9734 7.94229C24.0509 7.8357 24.172 7.7824 24.3368 7.7824C24.4918 7.7824 24.6129 7.84539 24.7001 7.97136C24.797 8.09733 24.8455 8.28144 24.8455 8.52369L24.831 9.8464C24.8293 9.87267 24.8278 9.90033 24.8265 9.92939C24.826 9.93925 24.8255 9.94929 24.8251 9.95948C24.8193 10.0963 24.8164 10.2621 24.8164 10.4569C24.8164 10.5285 24.8207 10.5964 24.8291 10.6604C24.8562 10.8652 24.9266 11.0306 25.0404 11.1567C25.2227 11.3588 25.5162 11.4598 25.9211 11.4598H28.0868C28.8136 11.4598 29.177 11.1497 29.177 10.5295C29.177 10.3939 29.1624 10.2825 29.1334 10.1952C29.114 10.0983 29.0704 9.97237 29.0026 9.81732C28.9057 9.55569 28.8378 9.3522 28.7991 9.20685C28.6246 8.58668 28.426 8.09248 28.2031 7.72426C28.0689 7.48636 27.8982 7.28302 27.6911 7.11424C27.6855 7.10967 27.6798 7.10512 27.6742 7.10059C27.6235 7.06017 27.5707 7.02176 27.5158 6.98539C27.5114 6.98249 27.507 6.97961 27.5026 6.97674C27.4342 6.9321 27.3624 6.89057 27.2874 6.85215C27.1808 6.79401 27.1275 6.73102 27.1275 6.66319C27.1275 6.60505 27.1808 6.55175 27.2874 6.5033C27.3745 6.46203 27.4579 6.41559 27.5374 6.36401C27.5459 6.3585 27.5544 6.35293 27.5628 6.34731C27.6059 6.31845 27.6479 6.28805 27.6887 6.2561C27.6922 6.25339 27.6956 6.25066 27.6991 6.24792C27.8865 6.09943 28.0496 5.91808 28.1886 5.70387C28.2961 5.53357 28.3788 5.34046 28.4366 5.12456C28.4659 5.01518 28.4888 4.89994 28.5054 4.77885C28.5267 4.62216 28.5374 4.4557 28.5374 4.27942C28.5374 3.28134 28.1934 2.5352 27.5054 2.041C26.8271 1.53711 25.9356 1.28517 24.831 1.28517H20.6448C20.2273 1.28517 19.9704 1.43434 19.8741 1.7327C19.8453 1.82208 19.8309 1.92485 19.8309 2.041C19.8309 2.04579 19.8309 2.05063 19.831 2.05554C19.8324 2.15009 19.8475 2.26739 19.8762 2.40746ZM28.335 6.6579C28.3249 6.6674 28.3148 6.67682 28.3046 6.68617C28.3155 6.69642 28.3263 6.70676 28.337 6.71718C28.3363 6.69745 28.3356 6.6777 28.335 6.6579ZM38.1646 9.97109C38.1917 9.91432 38.2142 9.85756 38.2324 9.80079C38.2338 9.79629 38.2352 9.79179 38.2366 9.78728C38.2683 9.68425 38.2852 9.58122 38.2875 9.47818C38.2877 9.47011 38.2878 9.46202 38.2878 9.45395C38.2878 9.34735 38.2636 9.20685 38.2151 9.03242C38.2055 9.00335 38.1812 8.90645 38.1425 8.74172C38.1134 8.5673 38.0989 8.33958 38.0989 8.05857C38.0989 7.62251 38.1425 7.23006 38.2297 6.88122C38.2781 6.71649 38.3023 6.57598 38.3023 6.4597C38.3023 6.26589 38.2442 6.12054 38.1279 6.02364C38.0712 5.9716 38.0017 5.93227 37.9195 5.90564C37.8334 5.87772 37.7333 5.86376 37.6192 5.86376H34.5959C34.3149 5.86376 34.092 5.95581 33.9273 6.13992C33.7985 6.27622 33.7201 6.43619 33.692 6.61982C33.6841 6.67119 33.6802 6.7244 33.6802 6.77947C33.6802 6.80459 33.681 6.82953 33.6826 6.85429C33.683 6.86024 33.6834 6.86617 33.6839 6.87209C33.6962 7.02233 33.7385 7.16588 33.811 7.30274C33.9008 7.45537 34.028 7.58305 34.1926 7.68576C34.1993 7.68995 34.2061 7.69409 34.2129 7.69818C34.2194 7.70207 34.2259 7.70591 34.2325 7.70972C34.2964 7.7475 34.3551 7.78309 34.4086 7.81651C34.4443 7.83882 34.4776 7.86015 34.5087 7.88051C34.5862 7.93139 34.6492 7.9762 34.6976 8.01496C34.7945 8.09248 34.843 8.17969 34.843 8.2766C34.843 8.43164 34.7315 8.50916 34.5087 8.50916C34.4496 8.50916 34.3882 8.49984 34.3246 8.48122C34.2631 8.46321 34.1996 8.43649 34.1339 8.40107C34.0635 8.3631 33.9908 8.31512 33.9156 8.25714C33.9141 8.25599 33.9126 8.25483 33.9111 8.25366C33.8688 8.22086 33.8257 8.1849 33.7819 8.14578C33.6218 7.99163 33.4744 7.80301 33.3398 7.57993C33.3355 7.57295 33.3313 7.56593 33.3271 7.55889C33.2464 7.42305 33.1703 7.27468 33.0988 7.11378C33.054 7.00549 33.0147 6.89405 32.9809 6.77947C32.9721 6.74972 32.9636 6.71975 32.9556 6.68958C32.8669 6.3576 32.8226 5.99997 32.8226 5.61666C32.8226 5.11277 32.9437 4.71548 33.186 4.42477C33.4379 4.12438 33.748 3.97418 34.1162 3.97418C34.591 3.97418 35.0126 4.25519 35.3808 4.81722C35.4626 4.94002 35.5553 5.04662 35.6588 5.137C35.7513 5.21778 35.8524 5.28561 35.9622 5.34049C36.1948 5.45677 36.4418 5.51491 36.7035 5.51491C37.054 5.51491 37.3592 5.42064 37.6192 5.23211C37.6539 5.20693 37.6878 5.18007 37.7209 5.15153C37.7254 5.14779 37.7299 5.14404 37.7343 5.14028C38.0161 4.90015 38.157 4.60835 38.157 4.26488C38.157 4.0517 38.1231 3.77553 38.0553 3.43638C37.9777 3.01001 37.939 2.51582 37.939 1.95379C37.939 1.68247 37.8469 1.46928 37.6628 1.31424C37.4884 1.1592 37.2607 1.08168 36.9797 1.08168C36.7083 1.08168 36.4709 1.19311 36.2674 1.41599C36.1996 1.5032 36.1124 1.5468 36.0058 1.5468C35.9283 1.5468 35.8314 1.51289 35.7151 1.44506C35.4728 1.3094 35.2403 1.21734 35.0174 1.16889C34.7945 1.11075 34.5038 1.08168 34.1453 1.08168C33.1181 1.08168 32.217 1.3094 31.4417 1.76483C30.6762 2.22027 30.0851 2.85497 29.6685 3.66894C29.4715 4.05814 29.3222 4.47229 29.2206 4.9114C29.1928 5.03161 29.1685 5.15371 29.1478 5.27766C29.0879 5.63661 29.058 6.01124 29.058 6.40156C29.058 7.48685 29.276 8.42679 29.7121 9.22138C30.1481 10.016 30.7586 10.6216 31.5435 11.0383C32.3284 11.455 33.2247 11.6633 34.2325 11.6633C35.0658 11.6633 35.8265 11.5276 36.5145 11.2563C37.2025 10.985 37.6919 10.6555 37.9826 10.2679C38.0568 10.169 38.1175 10.07 38.1646 9.97109ZM39.0116 9.55759C38.9837 9.71869 38.9502 9.86342 38.9114 9.99175C38.8897 10.0686 38.8708 10.1411 38.8545 10.209C38.8052 10.4151 38.7805 10.5801 38.7805 10.704C38.7805 11.2079 39.0519 11.4598 39.5945 11.4598H44.8853C45.3892 11.4598 45.772 11.3532 46.0336 11.14C46.1212 11.0712 46.1946 10.9918 46.2539 10.9018C46.2942 10.8407 46.3279 10.7748 46.3551 10.704C46.4121 10.5558 46.4406 10.3862 46.4406 10.1952C46.4406 10.0677 46.4448 9.93905 46.4532 9.80938C46.4535 9.80477 46.4538 9.80015 46.4541 9.79554C46.4715 9.53569 46.5058 9.27163 46.5569 9.00335C46.5754 8.92924 46.5851 8.82414 46.5859 8.68804C46.5859 8.68177 46.5859 8.67544 46.5859 8.66905C46.5859 8.60665 46.5821 8.54717 46.5746 8.49058C46.5468 8.28351 46.4682 8.11526 46.3388 7.98589C46.1875 7.82563 45.9747 7.73899 45.7007 7.72599C45.6765 7.72484 45.6518 7.72426 45.6266 7.72426C45.4134 7.72426 45.2439 7.76302 45.1179 7.84054C44.9919 7.90837 44.8514 8.01496 44.6964 8.16031C44.6043 8.25237 44.5122 8.33247 44.4202 8.40061C44.4105 8.40779 44.4008 8.41483 44.3911 8.42174C44.3378 8.45973 44.2845 8.49372 44.2312 8.52369C44.0762 8.60121 43.8679 8.63998 43.6062 8.63998C43.364 8.63998 43.1702 8.58183 43.0248 8.46555C42.8892 8.34927 42.8213 8.17969 42.8213 7.95682C42.8213 7.77271 42.8843 7.6322 43.0103 7.5353C43.1362 7.42871 43.2864 7.37541 43.4609 7.37541C43.6256 7.37541 43.7806 7.42871 43.926 7.5353C43.9454 7.54499 43.9938 7.57406 44.0713 7.62251C44.0999 7.63838 44.1316 7.65165 44.1664 7.66232C44.1804 7.66663 44.195 7.67051 44.21 7.67396C44.2222 7.67676 44.2347 7.67928 44.2475 7.68152C44.2996 7.69063 44.3572 7.69519 44.4202 7.69519C44.6163 7.69519 44.7835 7.63739 44.9217 7.52179C44.9274 7.51708 44.9329 7.51227 44.9385 7.50737C45.0053 7.44826 45.0651 7.37521 45.1179 7.2882C45.1689 7.20884 45.2125 7.12284 45.2486 7.03021C45.3359 6.80617 45.3795 6.54332 45.3795 6.24167C45.3795 5.86647 45.3127 5.56591 45.1792 5.34C45.1644 5.31502 45.1488 5.29096 45.1324 5.26781C44.9751 5.03641 44.7514 4.91552 44.4614 4.90516C44.4526 4.90485 44.4436 4.90463 44.4347 4.90452C44.4299 4.90446 44.425 4.90443 44.4202 4.90443C44.263 4.90443 44.1138 4.93197 43.9723 4.98703C43.9568 4.99308 43.9413 4.99946 43.926 5.00618C43.771 5.06432 43.6159 5.09339 43.4609 5.09339C43.2768 5.09339 43.1217 5.04494 42.9957 4.94804C42.8795 4.84145 42.8213 4.69125 42.8213 4.49745C42.8213 4.29395 42.8746 4.14376 42.9812 4.04686C43.0878 3.94027 43.2186 3.88697 43.3737 3.88697C43.5287 3.88697 43.6595 3.91604 43.7661 3.97418C43.8747 4.02848 43.9918 4.10391 44.1173 4.20048C44.1261 4.2073 44.1351 4.21424 44.144 4.22128C44.2431 4.29428 44.3352 4.35746 44.4202 4.41082C44.4932 4.45662 44.561 4.49519 44.6237 4.52652C44.7593 4.58466 44.9289 4.61373 45.1324 4.61373C45.2594 4.61373 45.3752 4.59813 45.4797 4.56695C45.6223 4.52438 45.744 4.45277 45.8446 4.3521C46.0288 4.16798 46.1208 3.94027 46.1208 3.66894C46.1208 3.57204 46.1063 3.46545 46.0772 3.34917C45.9803 3.01001 45.9318 2.65632 45.9318 2.2881C45.9318 1.95863 45.8204 1.71154 45.5975 1.5468C45.3844 1.37238 45.0404 1.28517 44.5655 1.28517H39.5945C39.0519 1.28517 38.7805 1.53711 38.7805 2.041C38.7805 2.20573 38.8241 2.44314 38.9114 2.75322C38.9986 3.05362 39.0567 3.47998 39.0858 4.03232C39.1245 4.57497 39.1439 5.35502 39.1439 6.37249C39.1439 7.41902 39.1294 8.20392 39.1003 8.72719C39.0829 9.04046 39.0533 9.31725 39.0116 9.55759ZM45.9111 5.17887C46.0532 5.50602 46.1063 5.87167 46.1063 6.24167C46.1063 6.51431 46.0772 6.78019 46.0108 7.03196C46.2189 7.07102 46.4205 7.14535 46.6032 7.26533C46.606 6.99406 46.6074 6.69654 46.6074 6.37249C46.6074 5.65427 46.5976 5.06326 46.5788 4.59601C46.5163 4.69136 46.4429 4.78163 46.3585 4.86599C46.2232 5.00128 46.0722 5.10412 45.9111 5.17887ZM47.303 8.4656C47.3001 8.53707 47.297 8.6049 47.2937 8.66905C47.2926 8.68877 47.2916 8.70815 47.2905 8.72719C47.2825 8.87155 47.2719 9.00817 47.2587 9.13704C47.2573 9.1507 47.2559 9.16427 47.2545 9.17776C47.2199 9.49822 47.1689 9.76955 47.1016 9.99175C47.0814 10.0635 47.0636 10.1313 47.0481 10.1952C46.9965 10.4078 46.9708 10.5773 46.9708 10.704C46.9708 10.8203 46.9852 10.9233 47.0142 11.0128C47.1106 11.3108 47.3674 11.4598 47.7847 11.4598H50.6191C50.967 11.4598 51.2141 11.3704 51.3606 11.1918C51.4671 11.0618 51.5203 10.8847 51.5203 10.6604C51.5203 10.5963 51.5128 10.5285 51.4977 10.4569C51.4786 10.366 51.4474 10.2691 51.404 10.1662C51.3504 10.0208 51.309 9.91168 51.2796 9.8388C51.2742 9.82539 51.2692 9.81321 51.2646 9.80225C51.2625 9.79734 51.2605 9.79267 51.2587 9.78825C51.2541 9.77627 51.2496 9.76421 51.2451 9.75206C51.1738 9.55787 51.1153 9.34221 51.0697 9.1051C51.0212 8.84347 50.997 8.60121 50.997 8.37834C50.997 8.19423 51.0358 8.04888 51.1133 7.94229C51.1908 7.8357 51.312 7.7824 51.4767 7.7824C51.6317 7.7824 51.7528 7.84539 51.8401 7.97136C51.937 8.09733 51.9854 8.28144 51.9854 8.52369L51.9709 9.8464C51.9692 9.87267 51.9677 9.90033 51.9664 9.92938C51.9659 9.93925 51.9655 9.94929 51.965 9.95948C51.9592 10.0963 51.9563 10.2621 51.9563 10.4569C51.9563 10.5285 51.9606 10.5964 51.969 10.6604C51.9961 10.8652 52.0665 11.0306 52.1803 11.1567C52.3626 11.3588 52.6562 11.4598 53.061 11.4598H55.2268C55.9535 11.4598 56.3169 11.1497 56.3169 10.5295C56.3169 10.3939 56.3024 10.2825 56.2733 10.1952C56.2539 10.0983 56.2103 9.97237 56.1425 9.81732C56.0456 9.55569 55.9777 9.3522 55.939 9.20685C55.7646 8.58668 55.5659 8.09248 55.343 7.72426C55.2088 7.48636 55.0382 7.28302 54.831 7.11424C54.8254 7.10967 54.8198 7.10512 54.8141 7.1006C54.7634 7.06017 54.7106 7.02176 54.6557 6.98539C54.6513 6.98249 54.6469 6.97961 54.6425 6.97674C54.5741 6.9321 54.5023 6.89057 54.4273 6.85215C54.3207 6.79401 54.2674 6.73102 54.2674 6.66319C54.2674 6.60505 54.3207 6.55175 54.4273 6.5033C54.5145 6.46203 54.5978 6.41559 54.6773 6.36401C54.6858 6.3585 54.6943 6.35294 54.7027 6.34731C54.7458 6.31846 54.7878 6.28805 54.8286 6.2561C54.8321 6.25339 54.8356 6.25066 54.839 6.24792C55.0264 6.09943 55.1896 5.91808 55.3285 5.70387C55.5611 5.33564 55.6773 4.86083 55.6773 4.27942C55.6773 3.28134 55.3334 2.5352 54.6454 2.041C53.967 1.53711 53.0756 1.28517 51.9709 1.28517H47.7847C47.2421 1.28517 46.9708 1.53711 46.9708 2.041C46.9708 2.20573 47.0144 2.44314 47.1016 2.75322C47.1888 3.05362 47.2469 3.47998 47.276 4.03232C47.3148 4.57497 47.3342 5.35502 47.3342 6.37249C47.3342 7.25715 47.3238 7.95485 47.303 8.4656ZM34.7194 5.137C34.451 4.75822 34.2445 4.70094 34.1162 4.70094C33.9786 4.70094 33.8673 4.74369 33.7436 4.89086C33.6531 4.9998 33.5698 5.18099 33.5526 5.49427C33.8501 5.24752 34.2144 5.137 34.5959 5.137H34.7194ZM6.20231 4.91897C6.20231 4.92065 6.20237 4.92064 6.20231 4.91897V4.91897ZM6.20237 4.04393C6.20238 4.04393 6.20237 4.04444 6.20232 4.04543L6.20237 4.04393ZM24.2098 4.77509C24.214 4.7756 24.2187 4.77628 24.2241 4.7772L24.5803 5.13341C24.5838 5.15376 24.5839 5.16589 24.5839 5.16607V5.137L24.7292 5.28235M24.584 4.03933C24.5841 4.03827 24.5841 4.03775 24.5841 4.03775L24.584 4.03933ZM24.1823 4.43955C24.1823 4.43954 24.1828 4.4395 24.1839 4.43945L24.1823 4.43955ZM51.8691 5.28235C51.7141 5.4277 51.5348 5.50038 51.3313 5.50038C51.1085 5.50038 50.997 5.38894 50.997 5.16607V4.04686C50.997 3.92088 51.0212 3.83367 51.0697 3.78522C51.1181 3.73677 51.2054 3.71255 51.3313 3.71255C51.5445 3.71255 51.7238 3.78522 51.8691 3.93058C52.0242 4.07593 52.1017 4.2988 52.1017 4.59919C52.1017 4.89959 52.0242 5.12731 51.8691 5.28235ZM6.27498 5.06432C6.13932 5.19029 5.97459 5.25328 5.78079 5.25328C5.57729 5.25328 5.47555 5.14184 5.47555 4.91897V4.04686C5.47555 3.93058 5.49977 3.84821 5.54822 3.79976C5.59668 3.74162 5.6742 3.71255 5.78079 3.71255C5.97459 3.71255 6.13932 3.77553 6.27498 3.9015C6.41065 4.02748 6.47848 4.22128 6.47848 4.48291C6.47848 4.74455 6.41065 4.93835 6.27498 5.06432ZM6.4058 8.63998C6.24107 8.79502 6.03273 8.87254 5.78079 8.87254C5.6742 8.87254 5.59668 8.84831 5.54822 8.79986C5.49977 8.74172 5.47555 8.65451 5.47555 8.53823V7.4917C5.47555 7.26882 5.57729 7.15739 5.78079 7.15739C6.02304 7.15739 6.23138 7.23491 6.4058 7.38995C6.58022 7.54499 6.66743 7.75333 6.66743 8.01496C6.66743 8.2766 6.58022 8.48493 6.4058 8.63998Z" fill="white"/>
</svg>
