<svg width="60" height="12" viewBox="0 0 60 12" fill="none" xmlns="http://www.w3.org/2000/svg">
<path d="M3.77172 11.1281C3.19031 11.1281 2.71549 11.1038 2.34727 11.0554C1.97905 11.0166 1.61567 10.9343 1.25713 10.8083C0.917977 10.692 0.675724 10.5467 0.530372 10.3722C0.39471 10.1881 0.312344 10.004 0.283274 9.8199C0.263893 9.63578 0.254203 9.34508 0.254203 8.94778C0.254203 8.5408 0.229978 8.23072 0.181527 8.01753C0.171837 7.96908 0.166992 7.9061 0.166992 7.82858C0.166992 7.55725 0.263893 7.33438 0.457696 7.15996C0.651498 6.97585 0.879216 6.88379 1.14085 6.88379C1.48 6.88379 1.76586 7.03883 1.99843 7.34891C2.45386 7.96908 2.97713 8.27917 3.56823 8.27917C3.888 8.27917 4.04789 8.15804 4.04789 7.91579C4.04789 7.77044 3.97037 7.64446 3.81532 7.53787C3.66028 7.42159 3.31628 7.27139 2.78333 7.08728C2.04688 6.82565 1.4364 6.43804 0.951892 5.92447C0.477076 5.4012 0.239668 4.6599 0.239668 3.70058C0.239668 2.68312 0.598203 1.90306 1.31527 1.36042C2.04203 0.817771 2.97228 0.546448 4.10603 0.546448C5.03628 0.546448 5.75335 0.619124 6.25723 0.764475C6.77081 0.909828 7.05667 1.19569 7.11481 1.62205C7.18264 2.12594 7.28923 2.63467 7.43459 3.14825C7.47335 3.27422 7.49272 3.40503 7.49272 3.5407C7.49272 3.82171 7.40067 4.04458 7.21656 4.20931C7.04213 4.36436 6.81926 4.44188 6.54794 4.44188C6.17002 4.44188 5.84056 4.29653 5.55955 4.00582C5.26884 3.70543 5.03628 3.50678 4.86186 3.40988C4.68743 3.30329 4.51786 3.24999 4.35313 3.24999C4.21746 3.24999 4.11087 3.27906 4.03335 3.3372C3.95583 3.39534 3.91707 3.47286 3.91707 3.56977C3.91707 3.69574 3.98975 3.81202 4.1351 3.91861C4.29014 4.01551 4.59538 4.13664 5.05081 4.28199C6.07797 4.62114 6.81442 5.04267 7.26016 5.54655C7.70591 6.05044 7.92878 6.76751 7.92878 7.69776C7.92878 8.74429 7.57509 9.57764 6.86771 10.1978C6.16033 10.818 5.12834 11.1281 3.77172 11.1281Z" fill="white"/>
<path d="M9.05662 10.9246C8.51397 10.9246 8.24265 10.6726 8.24265 10.1687C8.24265 10.004 8.28625 9.7666 8.37347 9.45652C8.47037 9.13674 8.53335 8.71522 8.56242 8.19196C8.59149 7.66869 8.60603 6.88379 8.60603 5.83726C8.60603 4.81979 8.58665 4.03974 8.54789 3.49709C8.51882 2.94475 8.46068 2.51839 8.37347 2.21799C8.28625 1.90791 8.24265 1.6705 8.24265 1.50577C8.24265 1.00188 8.51397 0.74994 9.05662 0.74994H11.9055C12.4482 0.74994 12.7195 1.00188 12.7195 1.50577C12.7195 1.6705 12.6759 1.90791 12.5887 2.21799C12.5015 2.51839 12.4385 2.94475 12.3997 3.49709C12.3706 4.03974 12.3561 4.81979 12.3561 5.83726C12.3561 6.88379 12.3706 7.66869 12.3997 8.19196C12.4288 8.71522 12.4918 9.13674 12.5887 9.45652C12.6759 9.7666 12.7195 10.004 12.7195 10.1687C12.7195 10.6726 12.4482 10.9246 11.9055 10.9246H9.05662Z" fill="white"/>
<path d="M13.851 10.9246C13.6475 10.9246 13.4779 10.8519 13.3422 10.7065C13.2163 10.5612 13.1533 10.3771 13.1533 10.1542C13.1533 9.97978 13.2066 9.70846 13.3132 9.34023C13.4198 8.95263 13.5118 8.41967 13.5893 7.74136C13.725 6.47196 13.7928 5.20255 13.7928 3.93315C13.7928 3.56492 13.788 3.26453 13.7783 3.03196C13.7783 2.7994 13.7638 2.58137 13.7347 2.37788C13.725 2.27129 13.7008 2.14532 13.662 1.99997C13.6039 1.7674 13.5748 1.60752 13.5748 1.52031C13.5748 1.28774 13.6475 1.10363 13.7928 0.967968C13.9479 0.822616 14.1707 0.74994 14.4614 0.74994H16.8888C17.2667 0.74994 17.5526 0.788701 17.7464 0.866222C17.9402 0.943743 18.0855 1.06487 18.1824 1.2296C18.2793 1.39433 18.3714 1.64628 18.4586 1.98543L18.5749 2.49416L18.7202 3.13371C18.7493 3.2403 18.7929 3.2936 18.8511 3.2936C18.9092 3.2936 18.9528 3.23546 18.9819 3.11918C19.0691 2.72188 19.1466 2.34397 19.2144 1.98543C19.3017 1.52031 19.4325 1.20053 19.6069 1.02611C19.7813 0.841996 20.0817 0.74994 20.5081 0.74994H23.0808C23.3521 0.74994 23.5605 0.822616 23.7058 0.967968C23.8512 1.10363 23.9238 1.28774 23.9238 1.52031C23.9238 1.64628 23.8948 1.84492 23.8366 2.11625C23.7979 2.31974 23.764 2.5087 23.7349 2.68312C23.7155 2.84785 23.7107 3.07072 23.7204 3.35174C23.7979 5.41573 23.8851 6.87894 23.982 7.74136C24.0595 8.44874 24.1709 9.00108 24.3163 9.39838C24.4229 9.69877 24.4762 9.95071 24.4762 10.1542C24.4762 10.3771 24.4083 10.5612 24.2727 10.7065C24.1467 10.8519 23.982 10.9246 23.7785 10.9246H20.668C20.4645 10.9246 20.2949 10.8519 20.1592 10.7065C20.0333 10.5612 19.9703 10.3771 19.9703 10.1542C19.9703 10.0864 19.9897 9.94587 20.0284 9.73268C20.0381 9.69392 20.0478 9.64547 20.0575 9.58733C20.0672 9.52919 20.0769 9.46621 20.0866 9.39838C20.1544 8.86542 20.198 8.41967 20.2174 8.06114C20.2368 7.69291 20.2464 7.19387 20.2464 6.56401C20.2464 6.52525 20.2319 6.49618 20.2028 6.4768C20.1835 6.45742 20.1592 6.44773 20.1302 6.44773C20.0623 6.44773 20.0236 6.48165 20.0139 6.54948C19.917 7.20841 19.7668 8.12897 19.5633 9.31116C19.5051 9.61156 19.384 9.83443 19.1999 9.97978C19.0255 10.1251 18.822 10.1978 18.5894 10.1978H18.0226C17.7997 10.1978 17.6156 10.1348 17.4702 10.0089C17.3249 9.88288 17.228 9.70846 17.1795 9.48559C17.1504 9.33055 17.1165 9.15128 17.0778 8.94778C17.0487 8.74429 17.0099 8.52626 16.9615 8.2937C16.9518 8.21618 16.8501 7.62508 16.6563 6.52041C16.6369 6.44289 16.5981 6.40413 16.54 6.40413C16.4528 6.40413 16.4092 6.44773 16.4092 6.53494C16.4188 6.88379 16.4431 7.35376 16.4818 7.94486C16.5206 8.52627 16.5545 8.93325 16.5836 9.16581L16.6708 9.70362C16.7192 9.89742 16.7435 10.0476 16.7435 10.1542C16.7435 10.3868 16.6708 10.5757 16.5254 10.7211C16.3801 10.8567 16.1669 10.9246 15.8859 10.9246H13.851Z" fill="white"/>
<path d="M25.6216 10.9246C25.079 10.9246 24.8076 10.6726 24.8076 10.1687C24.8076 10.004 24.8513 9.7666 24.9385 9.45652C25.0354 9.13674 25.0984 8.71522 25.1274 8.19196C25.1565 7.66869 25.171 6.88379 25.171 5.83726C25.171 4.81979 25.1516 4.03974 25.1129 3.49709C25.0838 2.94475 25.0257 2.51839 24.9385 2.21799C24.8513 1.90791 24.8076 1.6705 24.8076 1.50577C24.8076 1.00188 25.079 0.74994 25.6216 0.74994H29.4734C30.5684 0.74994 31.4405 1.02611 32.0898 1.57845C32.739 2.12109 33.0636 2.93991 33.0636 4.03489C33.0636 5.12019 32.739 5.91478 32.0898 6.41866C31.4502 6.91286 30.5539 7.15996 29.4008 7.15996C29.207 7.15996 29.0616 7.20356 28.9647 7.29077C28.8775 7.37799 28.8339 7.54272 28.8339 7.78497C28.8339 8.13382 28.8581 8.41967 28.9066 8.64255C28.955 8.86542 29.0277 9.0786 29.1246 9.28209C29.2021 9.44683 29.2603 9.59218 29.299 9.71815C29.3378 9.83443 29.3572 9.97009 29.3572 10.1251C29.3572 10.6581 29.0568 10.9246 28.456 10.9246H25.6216ZM29.1682 4.96514C29.3717 4.96514 29.551 4.89247 29.706 4.74712C29.861 4.59207 29.9386 4.36436 29.9386 4.06396C29.9386 3.76357 29.861 3.5407 29.706 3.39534C29.5607 3.24999 29.3814 3.17732 29.1682 3.17732C29.0422 3.17732 28.955 3.20154 28.9066 3.24999C28.8581 3.29844 28.8339 3.38565 28.8339 3.51163V4.63083C28.8339 4.85371 28.9453 4.96514 29.1682 4.96514Z" fill="white"/>
<path d="M34.3104 10.9246C34.0197 10.9246 33.7968 10.8567 33.6418 10.7211C33.4964 10.5854 33.4237 10.4013 33.4237 10.1687C33.4237 10.004 33.4673 9.7666 33.5545 9.45652C33.6514 9.13674 33.7144 8.71522 33.7435 8.19196C33.7726 7.66869 33.7871 6.88379 33.7871 5.83726C33.7871 4.81979 33.7677 4.03974 33.729 3.49709C33.6999 2.94475 33.6418 2.51839 33.5545 2.21799C33.4673 1.90791 33.4237 1.6705 33.4237 1.50577C33.4237 1.00188 33.695 0.74994 34.2377 0.74994H37.0866C37.3967 0.74994 37.6341 0.822616 37.7988 0.967968C37.9732 1.11332 38.0604 1.30712 38.0604 1.54938C38.0604 1.70442 38.0362 1.84492 37.9878 1.9709C37.949 2.08718 37.8812 2.22768 37.7843 2.39242C37.5905 2.73157 37.479 3.12887 37.45 3.5843C37.4209 4.1754 37.4064 4.77134 37.4064 5.37213C37.4064 6.04075 37.4209 6.70937 37.45 7.37799C37.479 7.90125 37.731 8.16288 38.2058 8.16288C38.419 8.16288 38.5886 8.10959 38.7145 8.003C38.8405 7.89641 38.9762 7.74136 39.1215 7.53787C39.2766 7.30531 39.4219 7.13573 39.5576 7.02914C39.7029 6.91286 39.9064 6.85472 40.168 6.85472C40.5169 6.85472 40.7737 6.94193 40.9384 7.11635C41.1128 7.28108 41.2 7.50396 41.2 7.78497C41.2 7.8528 41.1904 7.94486 41.171 8.06114C41.0741 8.53595 41.0111 9.06891 40.982 9.66001C40.9626 10.0864 40.8464 10.4061 40.6332 10.6193C40.4297 10.8228 40.1244 10.9246 39.7175 10.9246H34.3104Z" fill="white"/>
<path d="M42.3995 10.9246C41.8569 10.9246 41.5856 10.6726 41.5856 10.1687C41.5856 10.004 41.6292 9.7666 41.7164 9.45652C41.8133 9.13674 41.8763 8.71522 41.9053 8.19196C41.9344 7.66869 41.9489 6.88379 41.9489 5.83726C41.9489 4.81979 41.9296 4.03974 41.8908 3.49709C41.8617 2.94475 41.8036 2.51839 41.7164 2.21799C41.6292 1.90791 41.5856 1.6705 41.5856 1.50577C41.5856 1.00188 41.8569 0.74994 42.3995 0.74994H47.3706C47.8454 0.74994 48.1894 0.837151 48.4026 1.01157C48.6254 1.17631 48.7369 1.4234 48.7369 1.75287C48.7369 2.12109 48.7853 2.47478 48.8822 2.81394C48.9113 2.93022 48.9258 3.03681 48.9258 3.13371C48.9258 3.40503 48.8338 3.63275 48.6497 3.81686C48.4752 3.99129 48.2378 4.0785 47.9374 4.0785C47.734 4.0785 47.5644 4.04943 47.4287 3.99129C47.2931 3.92346 47.1332 3.82171 46.949 3.68605C46.8134 3.57946 46.6874 3.49709 46.5711 3.43895C46.4645 3.38081 46.3337 3.35174 46.1787 3.35174C46.0236 3.35174 45.8928 3.40503 45.7862 3.51163C45.6796 3.60853 45.6263 3.75872 45.6263 3.96222C45.6263 4.15602 45.6845 4.30622 45.8008 4.41281C45.9267 4.50971 46.0818 4.55816 46.2659 4.55816C46.4209 4.55816 46.576 4.52909 46.731 4.47095C46.8861 4.40312 47.0508 4.3692 47.2252 4.3692C47.5353 4.3692 47.7727 4.49033 47.9374 4.73258C48.1022 4.96514 48.1845 5.28976 48.1845 5.70644C48.1845 6.1328 48.0973 6.48165 47.9229 6.75297C47.7582 7.0243 47.5256 7.15996 47.2252 7.15996C47.0799 7.15996 46.9636 7.13573 46.8764 7.08728C46.7989 7.03883 46.7504 7.00976 46.731 7.00007C46.5857 6.89348 46.4306 6.84018 46.2659 6.84018C46.0915 6.84018 45.9413 6.89348 45.8153 7.00007C45.6893 7.09697 45.6263 7.23748 45.6263 7.42159C45.6263 7.64446 45.6942 7.81404 45.8298 7.93032C45.9752 8.0466 46.169 8.10474 46.4112 8.10474C46.6729 8.10474 46.8812 8.06598 47.0363 7.98846C47.1913 7.90125 47.3463 7.78013 47.5014 7.62508C47.6564 7.47973 47.7969 7.37314 47.9229 7.30531C48.0489 7.22779 48.2185 7.18903 48.4316 7.18903C48.7417 7.18903 48.9791 7.27624 49.1439 7.45066C49.3086 7.61539 49.391 7.84311 49.391 8.13381C49.391 8.27917 49.3813 8.3906 49.3619 8.46812C49.2844 8.87511 49.2456 9.2724 49.2456 9.66001C49.2456 10.0767 49.1099 10.3916 48.8386 10.6048C48.577 10.818 48.1942 10.9246 47.6903 10.9246H42.3995Z" fill="white"/>
<path d="M50.5898 10.9246C50.0471 10.9246 49.7758 10.6726 49.7758 10.1687C49.7758 10.004 49.8194 9.7666 49.9066 9.45652C50.0035 9.13674 50.0665 8.71522 50.0956 8.19196C50.1246 7.66869 50.1392 6.88379 50.1392 5.83726C50.1392 4.81979 50.1198 4.03974 50.081 3.49709C50.052 2.94475 49.9938 2.51839 49.9066 2.21799C49.8194 1.90791 49.7758 1.6705 49.7758 1.50577C49.7758 1.00188 50.0471 0.74994 50.5898 0.74994H54.7759C55.8806 0.74994 56.7721 1.00188 57.4504 1.50577C58.1384 1.99997 58.4824 2.74611 58.4824 3.74419C58.4824 4.3256 58.3661 4.80041 58.1335 5.16864C57.901 5.52717 57.6006 5.79365 57.2324 5.96807C57.1258 6.01652 57.0725 6.06982 57.0725 6.12796C57.0725 6.19579 57.1258 6.25878 57.2324 6.31692C57.6296 6.52041 57.9349 6.81111 58.1481 7.18903C58.3709 7.55725 58.5696 8.05145 58.744 8.67162C58.7828 8.81697 58.8506 9.02046 58.9475 9.28209C59.0153 9.43714 59.0589 9.56311 59.0783 9.66001C59.1074 9.74722 59.1219 9.85866 59.1219 9.99432C59.1219 10.6145 58.7585 10.9246 58.0318 10.9246H55.866C55.1296 10.9246 54.7614 10.5903 54.7614 9.92164C54.7614 9.6697 54.7662 9.46621 54.7759 9.31116L54.7904 7.98846C54.7904 7.74621 54.742 7.5621 54.6451 7.43613C54.5579 7.31015 54.4368 7.24717 54.2817 7.24717C54.117 7.24717 53.9958 7.30046 53.9183 7.40706C53.8408 7.51365 53.802 7.659 53.802 7.84311C53.802 8.06598 53.8263 8.30824 53.8747 8.56987C53.9232 8.82181 53.9862 9.04953 54.0637 9.25302C54.0928 9.32085 54.1412 9.44683 54.209 9.63094C54.2866 9.81505 54.3253 9.97978 54.3253 10.1251C54.3253 10.6581 54.0249 10.9246 53.4241 10.9246H50.5898ZM54.1364 4.96514C54.3399 4.96514 54.5191 4.89247 54.6742 4.74712C54.8292 4.59207 54.9067 4.36436 54.9067 4.06396C54.9067 3.76357 54.8292 3.5407 54.6742 3.39534C54.5288 3.24999 54.3495 3.17732 54.1364 3.17732C54.0104 3.17732 53.9232 3.20154 53.8747 3.24999C53.8263 3.29844 53.802 3.38565 53.802 3.51163V4.63083C53.802 4.85371 53.9135 4.96514 54.1364 4.96514Z" fill="white"/>
</svg>
