<svg width="41" height="42" viewBox="0 0 41 42" fill="none" xmlns="http://www.w3.org/2000/svg">
<g filter="url(#filter0_d)">
<path d="M20.1986 28.1648C26.2829 28.1648 31.3205 23.1163 31.3205 17.0429C31.3205 10.9585 26.272 5.92096 20.1877 5.92096C14.1142 5.92096 9.07666 10.9585 9.07666 17.0429C9.07666 23.1163 14.1251 28.1648 20.1986 28.1648ZM20.1986 26.3111C15.052 26.3111 10.9412 22.1895 10.9412 17.0429C10.9412 11.8963 15.0411 7.77461 20.1877 7.77461C25.3343 7.77461 29.4559 11.8963 29.4668 17.0429C29.4777 22.1895 25.3452 26.3111 20.1986 26.3111ZM16.4695 21.6552C16.7203 21.6552 16.9383 21.5571 17.1019 21.3826L20.1877 18.2859L23.2953 21.3826C23.4588 21.5462 23.666 21.6552 23.9168 21.6552C24.3966 21.6552 24.7891 21.2627 24.7891 20.772C24.7891 20.5212 24.7019 20.3249 24.5274 20.1505L21.4307 17.0538L24.5383 13.9353C24.7237 13.7499 24.8 13.5646 24.8 13.3247C24.8 12.8449 24.4075 12.4524 23.9277 12.4524C23.6987 12.4524 23.5133 12.5396 23.328 12.725L20.1877 15.8326L17.0801 12.7359C16.9165 12.5614 16.7203 12.4742 16.4695 12.4742C15.9897 12.4742 15.5972 12.8558 15.5972 13.3356C15.5972 13.5755 15.6953 13.7826 15.8588 13.9462L18.9555 17.0538L15.8588 20.1614C15.6953 20.3249 15.5972 20.5321 15.5972 20.772C15.5972 21.2627 15.9897 21.6552 16.4695 21.6552Z" fill="white" fill-opacity="0.7" shape-rendering="crispEdges"/>
</g>
<defs>
<filter id="filter0_d" x="0.0766602" y="0.920959" width="40.2438" height="40.2438" filterUnits="userSpaceOnUse" color-interpolation-filters="sRGB">
<feFlood flood-opacity="0" result="BackgroundImageFix"/>
<feColorMatrix in="SourceAlpha" type="matrix" values="0 0 0 0 0 0 0 0 0 0 0 0 0 0 0 0 0 0 127 0" result="hardAlpha"/>
<feOffset dy="4"/>
<feGaussianBlur stdDeviation="4.5"/>
<feComposite in2="hardAlpha" operator="out"/>
<feColorMatrix type="matrix" values="0 0 0 0 0 0 0 0 0 0 0 0 0 0 0 0 0 0 0.61 0"/>
<feBlend mode="normal" in2="BackgroundImageFix" result="effect1_dropShadow"/>
<feBlend mode="normal" in="SourceGraphic" in2="effect1_dropShadow" result="shape"/>
</filter>
</defs>
</svg>
